# xmcd
#
# Track frame offsets:
#	150
#	12865
#	25982
#	36287
#	51877
#	60780
#	75127
#	84732
#	95330
#	110007
#	122790
#	143850
#	157510
#	161830
#	167740
#
# Disc length: 2472 seconds
#
# Revision: 4
# Processed by: cddbd v1.5.1PL0 Copyright (c) Steve Scherf et al.
# Submitted via: dBpowerAMP V4.0
#
DISCID=ae09a60f
DTITLE=Adriana Calcanhoto - A Fábrica do Poema
DYEAR=1900
DGENRE=mpb
TTITLE0=Por Que Voce Faz Cinema?
TTITLE1=A Fabrica do Poema
TTITLE2=Bagatelas
TTITLE3=Metade
TTITLE4=Sudoeste
TTITLE5=O Verme e a Estrela
TTITLE6=Estrelas
TTITLE7=Aconteceu
TTITLE8=Cariocas
TTITLE9=Morro Dois Irmaos
TTITLE10=Inverno
TTITLE11=Roleta Russa
TTITLE12=Tema de Alice
TTITLE13=Portrait of Gertrude
TTITLE14=Minha Musica
EXTD=
EXTT0=
EXTT1=
EXTT2=
EXTT3=
EXTT4=
EXTT5=
EXTT6=
EXTT7=
EXTT8=
EXTT9=
EXTT10=
EXTT11=
EXTT12=
EXTT13=
EXTT14=
PLAYORDER=
